<?xml version="1.0" encoding="UTF-8"?>
<svg version="1.1" xmlns="http://www.w3.org/2000/svg" width="800" height="292">
<path d="M0 0 C1.00546875 0.01804687 2.0109375 0.03609375 3.046875 0.0546875 C3.77390625 0.07789063 4.5009375 0.10109375 5.25 0.125 C2.27114988 1.77336364 -0.3874242 2.57769138 -3.73266602 3.17480469 C-5.22453178 3.44617249 -5.22453178 3.44617249 -6.74653625 3.72302246 C-7.82146835 3.9123938 -8.89640045 4.10176514 -10.00390625 4.296875 C-12.31413351 4.71513667 -14.62435463 5.13343221 -16.93457031 5.55175781 C-18.74423279 5.87593689 -18.74423279 5.87593689 -20.5904541 6.20666504 C-55.62031718 12.15499733 -55.62031718 12.15499733 -89.9375 21.1875 C-90.6274707 21.40889648 -91.31744141 21.63029297 -92.02832031 21.85839844 C-97.05803275 23.60206563 -101.3400613 26.16436434 -105.75 29.125 C-105.62853677 31.07873808 -105.62853677 31.07873808 -104.75 33.125 C-98.29946656 36.69123475 -90.44863363 38.06964551 -83.27734375 39.5390625 C-82.29740952 39.74608795 -81.31747528 39.9531134 -80.30784607 40.16641235 C-66.8358289 42.98711326 -53.31503497 45.58906795 -39.7956543 48.171875 C13.41591406 58.36171816 13.41591406 58.36171816 22.03125 68.1484375 C23.25 70.125 23.25 70.125 23.4375 72.5625 C21.08377295 77.64159521 14.99559093 79.95614083 9.96289062 81.91381836 C8.44745282 82.46128447 6.92838606 82.99878657 5.40625 83.52734375 C4.58201538 83.82205063 3.75778076 84.11675751 2.90856934 84.4203949 C1.19639182 85.03125096 -0.51728608 85.63791752 -2.23242188 86.24041748 C-4.60624482 87.07448982 -6.97563249 87.91990475 -9.34375 88.77001953 C-13.97258382 90.42806519 -18.60968301 92.06189789 -23.25 93.6875 C-24.51142822 94.1296283 -24.51142822 94.1296283 -25.79833984 94.58068848 C-52.59134418 103.95324596 -79.61181644 112.64445697 -106.7225647 121.04901123 C-116.5718356 124.10295554 -126.37107852 127.28099204 -136.14013672 130.58227539 C-142.85425618 132.84596942 -149.58598038 135.037927 -156.33984375 137.1796875 C-158.01738475 137.71419617 -159.6948749 138.24886444 -161.37231445 138.78369141 C-163.84785654 139.57292679 -166.32412365 140.35909311 -168.80404663 141.13446045 C-181.26433196 145.00350814 -181.26433196 145.00350814 -192.75 151.125 C-192.87085935 153.56013618 -192.87085935 153.56013618 -192.75 156.125 C-162.45281708 188.6270992 24.24933711 203.47391492 164.39828491 223.71105957 C303.94000969 243.58509022 303.94000969 243.58509022 365.5625 253.4375 C366.26780602 253.55010414 366.97311203 253.66270828 367.69979095 253.77872467 C381.91664248 256.04972655 396.12352462 258.33846448 410.25 261.125 C409.92 261.785 409.59 262.445 409.25 263.125 C386.16093799 263.6495574 363.07181272 264.17124638 339.9826107 264.68960571 C329.25969803 264.93040371 318.53680728 265.17210811 307.81396484 265.41601562 C298.45797756 265.62882954 289.1019522 265.83987221 279.74587882 266.04886818 C274.80099861 266.15938667 269.85614059 266.27073749 264.91132736 266.38421631 C254.43911959 266.62407424 243.96688095 266.85058658 233.49370575 267.04406738 C230.86255897 267.09290463 228.23194188 267.14866988 225.60102081 267.20983887 C214.42465525 267.46551636 204.3973652 266.98508792 193.44516373 264.57638931 C189.11542202 263.68606887 184.74403489 263.03714423 180.37768555 262.35424805 C179.39453936 262.19879548 178.41139317 262.04334291 177.39845467 261.88317966 C175.31823461 261.55459284 173.23785557 261.2270112 171.15733337 260.90034294 C167.78369691 260.37053998 164.41053343 259.83781037 161.03747559 259.30433655 C156.19033411 258.53779396 151.34306124 257.77209069 146.49569702 257.00695801 C-42.74037531 227.11884254 -42.74037531 227.11884254 -177.75 197.125 C-178.48289246 196.94666626 -179.21578491 196.76833252 -179.97088623 196.58459473 C-267.70673608 175.19579551 -267.70673608 175.19579551 -278.75 157.125 C-279.125 154.0625 -279.125 154.0625 -277.75 151.125 C-268.14621862 140.72532513 -250.0518903 138.02793564 -236.9375 134.3125 C-235.16586149 133.80587725 -233.39437592 133.29871932 -231.62304688 132.79101562 C-227.33376585 131.56284644 -223.04249313 130.3418929 -218.75 129.125 C-224.62285989 130.68655411 -230.48982508 132.26820613 -236.35253906 133.86743164 C-238.34100655 134.40695202 -240.3308914 134.94127998 -242.32226562 135.4699707 C-253.20869864 138.36407526 -263.38079113 141.36925523 -273.27880859 146.82006836 C-275.75 148.125 -275.75 148.125 -277.75 148.125 C-280.3221478 153.2692956 -279.51958638 156.81624085 -277.75 162.125 C-275.91117488 163.18888787 -275.91117488 163.18888787 -273.75 164.125 C-272.34923817 165.05990712 -270.9604606 166.01293707 -269.58203125 166.98046875 C-265.05448856 170.02435776 -260.45922938 172.3271686 -255.4375 174.4375 C-254.53708984 174.81720947 -253.63667969 175.19691895 -252.70898438 175.58813477 C-169.31092564 209.85502501 -73.94377397 222.11689432 184.25 266.125 C183.92 266.785 183.59 267.445 183.25 268.125 C160.38549947 268.65140752 137.52089659 269.17315383 114.65616894 269.68960571 C104.03562173 269.92959939 93.41511087 270.17102188 82.79467773 270.41601562 C73.51952833 270.62997231 64.24431799 270.84103695 54.96902925 271.04886818 C50.07457648 271.15863281 45.18016177 271.26968208 40.2858181 271.38421631 C27.94118523 271.6723557 15.59652706 271.93251896 3.25 272.125 C2.41619009 272.13814019 1.58238019 272.15128038 0.72330332 272.16481876 C-4.15155772 272.23872264 -9.0260998 272.29407641 -13.90143144 272.32444763 C-15.37541974 272.33512858 -16.84938523 272.35004386 -18.32327998 272.36978912 C-30.4999449 272.52440134 -41.02096817 270.47142504 -52.61816406 267.00170898 C-58.62548151 265.32005347 -64.73969508 264.10236489 -70.84375 262.828125 C-72.17374979 262.54722498 -73.5036699 262.26594741 -74.83351135 261.98429871 C-78.26236972 261.25922698 -81.69235222 260.53962018 -85.12260818 259.8211937 C-88.75945347 259.05841111 -92.39513788 258.29012975 -96.03100586 257.52270508 C-114.08977598 253.71401016 -132.15902739 249.95600834 -150.23031616 246.20721436 C-168.86660879 242.33829884 -187.46711704 238.31819561 -206.04394531 234.17333984 C-209.08655678 233.49452666 -212.13007538 232.82012771 -215.17480469 232.15087891 C-364.26132551 199.35801173 -364.26132551 199.35801173 -383.75 170.125 C-384.97739885 165.97072699 -384.95566289 162.91132578 -382.98828125 158.9765625 C-354.31804842 116.10687681 -227.06853457 107.40455527 -181.27180481 98.21725464 C-177.8291372 97.52658258 -174.38666699 96.8349396 -170.94438171 96.1423645 C-170.08251409 95.96896482 -169.22064646 95.79556515 -168.33266163 95.61691093 C-166.58574303 95.26541669 -164.83883487 94.91387059 -163.09193707 94.56227303 C-158.84596227 93.70825057 -154.59944632 92.85714192 -150.35147095 92.01312256 C-132.19912456 88.40620679 -114.1066418 84.62038703 -96.08984375 80.3828125 C-94.90039752 80.10537012 -94.90039752 80.10537012 -93.68692207 79.82232285 C-77.04490581 76.22843233 -77.04490581 76.22843233 -61.75 69.125 C-63.11916666 65.75218286 -64.24342669 64.4939566 -67.59008789 63.07983398 C-73.33840787 60.73052309 -79.28177131 59.29326836 -85.30859375 57.84765625 C-87.74027356 57.24560094 -90.17191295 56.64338239 -92.60351562 56.04101562 C-96.3985702 55.11145921 -100.19452788 54.18579366 -103.99145508 53.26391602 C-107.68305822 52.36439419 -111.37087028 51.45043282 -115.05859375 50.53515625 C-116.74341103 50.13333885 -116.74341103 50.13333885 -118.46226501 49.72340393 C-125.12185255 48.0636795 -132.15649768 46.27528135 -137.75 42.125 C-138.63792419 40.11878967 -138.63792419 40.11878967 -138.75 38.125 C-116.75124876 10.44915166 -53.17309929 8.14346547 -20.9934082 2.51873779 C-18.9953691 2.16806443 -16.99856801 1.81035374 -15.00195312 1.45166016 C-9.94915795 0.56436677 -5.15080933 -0.12263832 0 0 Z M-136.75 105.125 C-132.75 106.125 -132.75 106.125 -132.75 106.125 Z M-143.75 107.125 C-139.75 108.125 -139.75 108.125 -139.75 108.125 Z M-154.75 110.125 C-150.75 111.125 -150.75 111.125 -150.75 111.125 Z M-161.75 112.125 C-157.75 113.125 -157.75 113.125 -157.75 113.125 Z M-168.75 114.125 C-164.75 115.125 -164.75 115.125 -164.75 115.125 Z M-175.75 117.125 C-172.285 116.63 -172.285 116.63 -168.75 116.125 C-172.23581856 114.9229936 -172.42992344 114.91161563 -175.75 117.125 Z M-182.75 119.125 C-179.285 118.63 -179.285 118.63 -175.75 118.125 C-179.23581856 116.9229936 -179.42992344 116.91161563 -182.75 119.125 Z M-186.75 119.125 C-182.75 120.125 -182.75 120.125 -182.75 120.125 Z M-193.75 121.125 C-189.75 122.125 -189.75 122.125 -189.75 122.125 Z M-200.75 124.125 C-197.285 123.63 -197.285 123.63 -193.75 123.125 C-197.23581856 121.9229936 -197.42992344 121.91161563 -200.75 124.125 Z M-207.75 126.125 C-204.285 125.63 -204.285 125.63 -200.75 125.125 C-204.23581856 123.9229936 -204.42992344 123.91161563 -207.75 126.125 Z M-214.75 128.125 C-211.285 127.63 -211.285 127.63 -207.75 127.125 C-211.23581856 125.9229936 -211.42992344 125.91161563 -214.75 128.125 Z " fill="#000000" transform="translate(387.75,9.875)"/>
<path d="M0 0 C1.00546875 0.01804687 2.0109375 0.03609375 3.046875 0.0546875 C4.13742187 0.08949219 4.13742187 0.08949219 5.25 0.125 C2.27114988 1.77336364 -0.3874242 2.57769138 -3.73266602 3.17480469 C-4.72720291 3.35569641 -5.72173981 3.53658813 -6.74641418 3.72296143 C-7.82138657 3.91235291 -8.89635895 4.10174438 -10.00390625 4.296875 C-12.31477917 4.71549192 -14.62565154 5.13411182 -16.93652344 5.55273438 C-18.14304565 5.76889404 -19.34956787 5.98505371 -20.59265137 6.20776367 C-39.58923123 9.61521635 -58.51601428 13.11739648 -77.29858398 17.5690918 C-79.81178059 18.13901 -82.3317737 18.63179322 -84.86328125 19.11328125 C-90.35211964 20.1881021 -95.61241085 21.82493873 -100.93164062 23.53320312 C-106.43262453 25.23079182 -106.43262453 25.23079182 -109.75 24.125 C-108.48160474 23.61884702 -107.21016898 23.12030901 -105.9375 22.625 C-105.22980469 22.3465625 -104.52210938 22.068125 -103.79296875 21.78125 C-101.75 21.125 -101.75 21.125 -98.75 21.125 C-98.75 20.465 -98.75 19.805 -98.75 19.125 C-73.41477577 11.24072208 -47.08205503 7.07880437 -20.9934082 2.51873779 C-18.9953691 2.16806443 -16.99856801 1.81035374 -15.00195312 1.45166016 C-9.94915795 0.56436677 -5.15080933 -0.12263832 0 0 Z " fill="#1B1B1B" transform="translate(387.75,9.875)"/>
<path d="M0 0 C-3.59687011 2.11882949 -7.34349445 2.78924909 -11.3984375 3.5078125 C-12.11101715 3.63815887 -12.8235968 3.76850525 -13.55776978 3.90280151 C-15.06173384 4.17631872 -16.56625779 4.44677289 -18.07128906 4.71435547 C-20.36166906 5.12262371 -22.64958658 5.54299741 -24.9375 5.96484375 C-26.40351405 6.22989659 -27.86965609 6.4942427 -29.3359375 6.7578125 C-30.35341568 6.94526535 -30.35341568 6.94526535 -31.39144897 7.13650513 C-35.30843081 7.82432463 -39.02535042 8.1224035 -43 8 C-43.33 7.34 -43.66 6.68 -44 6 C-37.3381501 4.64193149 -30.67114341 3.31162355 -24 2 C-22.81921875 1.76539063 -21.6384375 1.53078125 -20.421875 1.2890625 C-13.56651085 0.0243028 -6.96382658 -0.22224978 0 0 Z " fill="#1B1B1B" transform="translate(393,10)"/>
<path d="M0 0 C0 0.66 0 1.32 0 2 C-4.0345108 2.90994827 -8.07279064 3.80041569 -12.11547852 4.67333984 C-13.48903568 4.97274844 -14.86146538 5.27738038 -16.23266602 5.58740234 C-18.20833729 6.03312869 -20.18735352 6.45967174 -22.16796875 6.8828125 C-23.95110474 7.27557373 -23.95110474 7.27557373 -25.77026367 7.67626953 C-29.22209766 8.02226181 -30.95341721 7.57226779 -34 6 C-34 5.67 -34 5.34 -34 5 C-29.64195356 4.11743951 -25.28205723 3.24489785 -20.92016602 2.3815918 C-19.43654357 2.08648964 -17.95346193 1.78865496 -16.47094727 1.48803711 C-14.340068 1.05643953 -12.20743801 0.63470176 -10.07421875 0.21484375 C-8.79119873 -0.04176025 -7.50817871 -0.29836426 -6.1862793 -0.56274414 C-3 -1 -3 -1 0 0 Z " fill="#2C2C2C" transform="translate(350,17)"/>
<path d="M0 0 C-2.78652906 1.52543191 -5.1945762 2.35914769 -8.328125 2.8515625 C-9.12734375 2.98046875 -9.9265625 3.109375 -10.75 3.2421875 C-11.575 3.36851563 -12.4 3.49484375 -13.25 3.625 C-14.09046875 3.7590625 -14.9309375 3.893125 -15.796875 4.03125 C-17.86365501 4.36005591 -19.93171161 4.68081969 -22 5 C-22 4.34 -22 3.68 -22 3 C-15.22460906 -0.90887939 -7.56495747 -0.11016928 0 0 Z " fill="#111111" transform="translate(393,10)"/>
<path d="M0 0 C0 0.66 0 1.32 0 2 C-2.35143176 2.67789024 -4.70538624 3.34240747 -7.0625 4 C-7.71927734 4.19078125 -8.37605469 4.3815625 -9.05273438 4.578125 C-13.4674018 5.79596429 -17.37941677 6.19227394 -22 6 C-19.18112949 3.18112949 -15.88928699 2.7744314 -12.125 1.875 C-11.40441406 1.69324219 -10.68382812 1.51148437 -9.94140625 1.32421875 C-6.50054947 0.48143062 -3.56318117 0 0 0 Z " fill="#343434" transform="translate(316,24)"/>
<path d="M0 0 C0.33 0.66 0.66 1.32 1 2 C-4.445 3.485 -4.445 3.485 -10 5 C-10 5.66 -10 6.32 -10 7 C-11.32 7.33 -12.64 7.66 -14 8 C-13.3828125 6.140625 -13.3828125 6.140625 -12 4 C-9.1796875 2.734375 -9.1796875 2.734375 -5.875 1.75 C-4.77929688 1.41484375 -3.68359375 1.0796875 -2.5546875 0.734375 C-1.29011719 0.37085937 -1.29011719 0.37085937 0 0 Z " fill="#060606" transform="translate(288,29)"/>
<path d="M0 0 C0 0.99 0 1.98 0 3 C-3.3125 3.6875 -3.3125 3.6875 -7 4 C-8.9375 2.5625 -8.9375 2.5625 -10 1 C-6.59437148 0.22157062 -3.49234244 -0.09978121 0 0 Z " fill="#343434" transform="translate(326,21)"/>
<path d="" fill="#000000" transform="translate(0,0)"/>
</svg>
